<svg preserveAspectRatio="none" overflow="visible" style="display: block;" width="188.555" height="31.9977" viewBox="0 0 188.555 31.9977" fill="none" xmlns="http://www.w3.org/2000/svg">
<g id="Fadhil Yassar">
<path d="M0.810811 31.9624C0.560125 31.9624 0.36036 31.8488 0.211516 31.6216C0.0705053 31.3866 0 31.0928 0 30.7403C0 30.1919 0.137094 29.5378 0.411281 28.7779C0.685468 28.018 1.14375 27.0192 1.78613 25.7814C2.43635 24.5437 3.38817 22.8241 4.6416 20.6228L4.86486 20.2115C4.05797 20.3369 3.52526 20.3995 3.26675 20.3995C3.01606 20.3995 2.83196 20.3329 2.71445 20.1998C2.60478 20.0588 2.54994 19.9177 2.54994 19.7767C2.54994 19.6906 2.58128 19.5887 2.64395 19.4712C2.71445 19.3537 2.78888 19.2754 2.86722 19.2362C3.05523 19.1187 4.00313 18.9542 5.71093 18.7427C6.93302 16.698 7.91226 15.0999 8.64865 13.9483C9.38504 12.7967 10.2076 11.6138 11.1163 10.3995C12.0251 9.17744 13.1453 7.783 14.4771 6.21622C11.3514 6.42773 8.87583 6.69017 7.05053 7.00353C5.23306 7.30905 3.66628 7.73208 2.35018 8.27262C2.35018 8.59381 2.29926 8.83666 2.19741 9.00118C2.10341 9.16569 1.9389 9.24794 1.70388 9.24794C1.49236 9.24794 1.30435 9.14219 1.13984 8.93067C0.975323 8.71915 0.893067 8.48414 0.893067 8.22562C0.893067 7.81042 1.21034 7.41872 1.84489 7.05053C2.47944 6.68233 3.35292 6.35331 4.46533 6.06345C5.57775 5.7736 6.8586 5.52683 8.30787 5.32315C9.75715 5.11947 11.2965 4.96671 12.926 4.86486C14.5554 4.75519 16.1849 4.70035 17.8143 4.70035C19.6553 4.70035 21.4414 4.76694 23.1727 4.90012C24.9119 5.02546 26.463 5.20564 27.8261 5.44066C29.197 5.66784 30.2781 5.9342 31.0693 6.23972C31.8606 6.53741 32.2679 6.84685 32.2914 7.16804C32.2993 7.24638 32.3032 7.31297 32.3032 7.3678C32.3032 7.54015 32.2366 7.69291 32.1034 7.82609C31.9702 7.95926 31.8331 8.02585 31.6921 8.02585C31.5354 8.02585 31.273 7.9436 30.9048 7.77908C29.8316 7.32472 28.2256 6.96044 26.087 6.68625C23.9483 6.41206 21.5629 6.26322 18.9307 6.23972L16.2397 6.21622C14.5398 8.34704 13.0787 10.2624 11.8566 11.9624C10.6424 13.6545 9.24794 15.8089 7.67333 18.4254L7.53232 18.6486C7.60282 18.6408 7.69683 18.633 7.81434 18.6251C8.29221 18.5938 8.77007 18.5742 9.24794 18.5664C9.72581 18.5586 10.7325 18.5546 12.2679 18.5546C14.2264 18.5546 15.3584 18.5664 15.6639 18.5899C15.9773 18.6291 16.2201 18.7152 16.3925 18.8484C16.5727 18.9738 16.6628 19.1304 16.6628 19.3184C16.6628 19.4203 16.6353 19.526 16.5805 19.6357C16.5257 19.7924 16.4238 19.8982 16.275 19.953C16.134 20.0078 15.8245 20.0353 15.3467 20.0353C15.1273 20.0353 14.7199 20.0313 14.1246 20.0235C13.161 20 12.4011 19.9882 11.8449 19.9882C10.5915 19.9882 9.31062 20.0196 8.00235 20.0823C7.43047 20.1136 6.97219 20.1371 6.6275 20.1528C6.40815 20.5366 6.09087 21.1007 5.67568 21.8449C4.45358 23.9835 3.45084 25.8363 2.66745 27.4031C1.89189 28.962 1.50411 30.0823 1.50411 30.7638C1.50411 30.8813 1.51586 31.0419 1.53937 31.2456C1.55503 31.3709 1.56287 31.4532 1.56287 31.4924C1.56287 31.555 1.55112 31.606 1.52761 31.6451C1.50411 31.6843 1.46103 31.743 1.39835 31.8214C1.18684 31.9154 0.990991 31.9624 0.810811 31.9624Z" fill="#F1E0CA"/>
<path d="M31.4219 21.2456C30.9205 21.2456 30.4034 21.1281 29.8707 20.8931C29.338 20.658 28.8797 20.2977 28.4959 19.812C28.112 19.3184 27.8888 18.7113 27.8261 17.9906C27.7948 17.6616 27.7673 17.4971 27.7438 17.4971C27.7438 17.4971 27.5519 17.6812 27.168 18.0494C26.7842 18.4097 26.3533 18.774 25.8754 19.1422C25.4054 19.5104 24.8805 19.8394 24.3008 20.1293C23.8308 20.3643 23.4704 20.517 23.2197 20.5875C22.9769 20.6502 22.6792 20.6816 22.3267 20.6816C21.7156 20.6816 21.2025 20.5249 20.7873 20.2115C20.3799 19.8903 20.1763 19.3302 20.1763 18.5311C20.1763 17.7712 20.4191 17.0544 20.9048 16.3807C21.3905 15.6992 22.0016 15.1391 22.738 14.7004C23.349 14.3322 23.9561 14.0697 24.5593 13.913C25.1626 13.7564 25.895 13.678 26.7568 13.678C27.5088 13.678 28.0572 13.7211 28.4019 13.8073C28.7466 13.8856 29.0286 14.0384 29.2479 14.2656C29.389 14.3987 29.4712 14.5006 29.4947 14.5711C29.5182 14.6338 29.53 14.8022 29.53 15.0764C29.53 15.3036 29.4947 15.7148 29.4242 16.3102C29.3537 16.9213 29.3184 17.3443 29.3184 17.5793C29.3184 18.3235 29.5065 18.8719 29.8825 19.2244C30.2664 19.5691 30.7677 19.7415 31.3866 19.7415C32.029 19.7415 32.6596 19.5652 33.2785 19.2127C33.9052 18.8602 34.5985 18.394 35.3584 17.8143C35.7031 17.548 35.9616 17.36 36.134 17.2503C36.3063 17.1328 36.4395 17.074 36.5335 17.074C36.7293 17.074 36.8939 17.1445 37.027 17.2855C37.1602 17.4266 37.2268 17.5793 37.2268 17.7438C37.2268 17.9945 37.0623 18.2726 36.7333 18.5781C35.9029 19.3459 34.9589 19.9843 33.9013 20.4935C32.8437 20.9949 32.0172 21.2456 31.4219 21.2456ZM22.3384 19.2362C22.8711 19.2362 23.5997 18.9228 24.5241 18.2961C25.4563 17.6694 26.3729 16.8351 27.2738 15.7932C27.6107 15.4172 27.7791 15.19 27.7791 15.1116C27.7791 15.096 27.7752 15.0842 27.7673 15.0764C27.7125 15.0372 27.5206 15.0176 27.1915 15.0176C25.9694 15.0176 24.8766 15.2526 23.913 15.7227C22.9495 16.1849 22.2758 16.8077 21.8919 17.5911C21.7117 17.9671 21.6216 18.2883 21.6216 18.5546C21.6216 18.7662 21.6804 18.9346 21.7979 19.0599C21.9232 19.1774 22.1034 19.2362 22.3384 19.2362Z" fill="#F1E0CA"/>
<path d="M46.604 21.2573C46.0635 21.2573 45.7031 21.2299 45.5229 21.1751C44.7709 20.9479 44.1755 20.521 43.7368 19.8942C43.2981 19.2597 43.0552 18.4802 43.0082 17.5558C42.9691 17.0779 42.9495 16.839 42.9495 16.839C42.9338 16.839 42.7693 16.9722 42.4559 17.2385C41.7587 17.8261 41.085 18.3627 40.4348 18.8484C39.7924 19.3341 39.1774 19.7062 38.5899 19.9647C38.3392 20.0666 38.1473 20.1293 38.0141 20.1528C37.8809 20.1763 37.6577 20.188 37.3443 20.188C36.9604 20.188 36.6941 20.1645 36.5452 20.1175C36.3964 20.0705 36.228 19.953 36.04 19.765C35.8676 19.5926 35.754 19.4281 35.6992 19.2714C35.6365 19.1069 35.6052 18.8641 35.6052 18.5429C35.6052 18.253 35.6208 18.0494 35.6522 17.9318C35.6757 17.8065 35.7579 17.6067 35.8989 17.3326C36.2671 16.5648 36.7763 15.8715 37.4266 15.2526C38.0846 14.6338 38.7818 14.152 39.5182 13.8073C40.2624 13.4548 40.9557 13.2785 41.5981 13.2785C41.9193 13.2785 42.1935 13.3177 42.4207 13.396C42.6557 13.4743 42.973 13.6114 43.3725 13.8073C43.443 13.8465 43.4978 13.8739 43.537 13.8895C44.1481 12.4011 45.0568 10.7207 46.2632 8.84841C47.4696 6.97611 48.6839 5.25264 49.906 3.67803C51.1281 2.09557 52.0212 1.02233 52.5852 0.458284C52.8515 0.168429 53.0944 0.0235018 53.3137 0.0235018C53.5096 0.0235018 53.6741 0.0783392 53.8073 0.188014C53.9405 0.289855 54.0071 0.458284 54.0071 0.693302C54.0071 0.810811 53.9835 0.908735 53.9365 0.987074C53.8895 1.05758 53.776 1.19076 53.5958 1.3866C52.8359 2.2405 51.7235 3.67411 50.2585 5.68743C48.7936 7.69291 47.7282 9.29886 47.0623 10.5053C46.1379 12.0251 45.4759 13.2785 45.0764 14.2656C44.6769 15.2526 44.4771 16.1457 44.4771 16.9448C44.4771 17.877 44.6533 18.5938 45.0059 19.0952C45.3662 19.5887 45.8794 19.8355 46.5452 19.8355C47.0936 19.8355 47.7634 19.6553 48.5546 19.2949C49.3537 18.9268 50.1684 18.4175 50.9988 17.7673C51.4219 17.4148 51.7509 17.2385 51.9859 17.2385C52.1661 17.2385 52.3228 17.313 52.4559 17.4618C52.5969 17.6107 52.6675 17.7673 52.6675 17.9318C52.6675 18.159 52.4951 18.4215 52.1504 18.7192C51.9154 18.9228 51.5237 19.2127 50.9753 19.5887C50.4269 19.9647 50.0274 20.2154 49.7767 20.3408C49.0012 20.7168 48.398 20.9636 47.9671 21.0811C47.5441 21.1986 47.0897 21.2573 46.604 21.2573ZM37.3208 18.7427C37.7673 18.7427 38.4763 18.398 39.4477 17.7086C40.0823 17.2464 40.7677 16.698 41.5041 16.0635C42.2405 15.4211 42.6087 15.0568 42.6087 14.9706V14.9589C42.5695 14.8962 42.4324 14.8374 42.1974 14.7826C41.9702 14.7278 41.7666 14.7004 41.5864 14.7004C40.9518 14.7317 40.282 14.9863 39.577 15.4642C38.8719 15.942 38.2726 16.4904 37.7791 17.1093C37.2934 17.7203 37.0505 18.1943 37.0505 18.5311C37.0505 18.6722 37.1406 18.7427 37.3208 18.7427Z" fill="#F1E0CA"/>
<path d="M63.9483 21.2926C63.0552 21.2926 62.3149 21.0458 61.7274 20.5523C61.1477 20.0588 60.7795 19.3615 60.6228 18.4606C60.615 18.3901 60.5993 18.2922 60.5758 18.1669C60.5053 17.6498 60.4269 17.3012 60.3408 17.121C60.2546 16.933 60.0705 16.839 59.7885 16.839C59.2558 16.839 58.4567 17.1093 57.3913 17.6498C56.3337 18.1904 55.0372 19.0168 53.5018 20.1293C52.8672 20.615 52.4128 20.9244 52.1387 21.0576C51.8723 21.1829 51.6255 21.2456 51.3984 21.2456C51.1398 21.2456 50.9244 21.1477 50.7521 20.9518C50.5797 20.7481 50.4935 20.5249 50.4935 20.282C50.4935 19.9295 50.6933 19.2636 51.0928 18.2844C51.4845 17.3051 52.0642 16.1026 52.832 14.6769C53.6075 13.2432 54.528 11.7156 55.5934 10.094C56.0321 9.43596 56.7568 8.42538 57.7673 7.06228C58.7779 5.69134 59.5574 4.67685 60.1058 4.0188C60.5758 3.46259 61.0654 2.90247 61.5746 2.33843C62.0917 1.77438 62.64 1.24559 63.2197 0.752056C63.7995 0.250685 64.2538 0 64.5828 0C64.8179 0 65.002 0.0705053 65.1351 0.211516C65.2683 0.344693 65.3349 0.505288 65.3349 0.693302C65.3349 0.951821 65.1626 1.16334 64.8179 1.32785C64.3557 1.53153 63.5566 2.29142 62.4207 3.60752C61.2848 4.91579 60.0666 6.45907 58.7662 8.23737C57.4736 10.0078 56.3846 11.6216 55.4994 13.0787C54.8884 14.1128 54.2342 15.3075 53.537 16.6628C52.8398 18.018 52.4912 18.774 52.4912 18.9307V18.9542H52.5029C52.5421 18.9542 52.6949 18.8562 52.9612 18.6604C53.8543 18.0024 54.8218 17.3756 55.8637 16.7803C56.9134 16.177 57.7282 15.7814 58.3079 15.5934C58.9189 15.4132 59.4242 15.3231 59.8237 15.3231C59.9099 15.3231 59.9843 15.3271 60.047 15.3349C60.6581 15.4211 61.0968 15.6287 61.3631 15.9577C61.6373 16.2867 61.8331 16.839 61.9506 17.6146C61.982 17.7712 62.0251 17.9906 62.0799 18.2726C62.1191 18.4998 62.1426 18.6291 62.1504 18.6604C62.4481 19.4125 63.0513 19.7885 63.96 19.7885C64.3204 19.7885 64.7669 19.7101 65.2996 19.5535C65.8324 19.389 66.3651 19.1774 66.8978 18.9189C67.4383 18.6604 67.9123 18.3901 68.3196 18.1081C68.3353 18.1003 68.3549 18.0885 68.3784 18.0729C69.0129 17.6342 69.4399 17.3404 69.6592 17.1915C69.8864 17.0427 70.0509 16.9487 70.1528 16.9095C70.2546 16.8625 70.3564 16.839 70.4583 16.839C70.6698 16.839 70.8421 16.9056 70.9753 17.0388C71.1085 17.1641 71.1751 17.3208 71.1751 17.5088C71.1751 17.6185 71.1477 17.7321 71.0928 17.8496C71.0145 17.9828 70.564 18.347 69.7415 18.9424C68.9189 19.5378 67.9788 20.0783 66.9213 20.564C65.8637 21.0497 64.8727 21.2926 63.9483 21.2926Z" fill="#F1E0CA"/>
<path d="M72.3032 21.2573C71.8331 21.2573 71.5002 21.2221 71.3043 21.1516C70.803 20.9949 70.3956 20.7246 70.0823 20.3408C69.7689 19.9491 69.6122 19.4947 69.6122 18.9777C69.6122 18.5703 69.7062 18.0924 69.8942 17.5441C70.0901 16.9879 70.3564 16.4277 70.6933 15.8637C71.0302 15.2918 71.4062 14.7787 71.8214 14.3243C71.9859 14.1441 72.1308 14.0149 72.2562 13.9365C72.3893 13.8504 72.5186 13.8073 72.6439 13.8073C72.8006 13.8073 72.9456 13.87 73.0787 13.9953C73.2119 14.1128 73.2785 14.2617 73.2785 14.4418C73.2785 14.4888 73.1375 14.7239 72.8555 15.1469C72.3619 15.9068 71.9467 16.604 71.6099 17.2385C71.2808 17.8731 71.1163 18.4371 71.1163 18.9307C71.1163 19.2205 71.2182 19.436 71.4219 19.577C71.6334 19.718 71.9193 19.7885 72.2797 19.7885C72.9769 19.7885 73.917 19.5456 75.0999 19.0599C76.2828 18.5742 77.2542 18.0063 78.0141 17.3561C78.4293 17.0114 78.7074 16.839 78.8484 16.839C79.0129 16.839 79.1774 16.9213 79.342 17.0858C79.5065 17.2503 79.5887 17.4148 79.5887 17.5793C79.5887 17.9318 79.2244 18.3666 78.4959 18.8837C77.7673 19.3929 77.0936 19.8002 76.4747 20.1058C75.942 20.3721 75.2879 20.6306 74.5123 20.8813C73.7446 21.132 73.0082 21.2573 72.3032 21.2573ZM73.584 13.3608C73.4665 13.3608 73.3412 13.3333 73.208 13.2785C73.0356 13.161 72.9495 12.9573 72.9495 12.6675C72.9495 12.5343 73.0866 12.311 73.3608 11.9977C73.6349 11.6765 73.8269 11.4845 73.9365 11.4219C74.0306 11.3749 74.1285 11.3514 74.2303 11.3514C74.3948 11.3514 74.5398 11.414 74.6651 11.5394C74.7983 11.6569 74.8649 11.8096 74.8649 11.9977C74.8649 12.1543 74.7904 12.3423 74.6416 12.5617C74.4928 12.7732 74.3165 12.9612 74.1128 13.1257C73.9091 13.2824 73.7329 13.3608 73.584 13.3608Z" fill="#F1E0CA"/>
<path d="M81.3514 21.2456C81.1242 21.2456 80.9479 21.2338 80.8226 21.2103C79.4908 20.9205 78.6917 20.1763 78.4254 18.9777C78.3627 18.727 78.3314 18.3353 78.3314 17.8026C78.3314 17.0192 78.3901 16.369 78.5076 15.8519C78.7975 14.5828 79.3929 13.02 80.2938 11.1633C81.1947 9.3067 82.3541 7.25421 83.772 5.00588C84.7983 3.35292 85.6287 2.15825 86.2632 1.42186C86.9056 0.685468 87.4266 0.317274 87.8261 0.317274C88.0219 0.317274 88.1904 0.395613 88.3314 0.552291C88.4802 0.701136 88.5546 0.896984 88.5546 1.13984C88.5546 1.42969 88.4763 1.68821 88.3196 1.91539C88.1708 2.14258 87.9553 2.25617 87.6733 2.25617C87.548 2.25617 87.454 2.26792 87.3913 2.29142C87.3365 2.31492 87.2895 2.36193 87.2503 2.43243C86.9056 2.8633 86.3181 3.72895 85.4877 5.02938C84.6651 6.32981 83.96 7.50881 83.3725 8.56639C81.8214 11.3239 80.7481 13.6271 80.1528 15.4759C79.9021 16.4473 79.7767 17.219 79.7767 17.7908C79.7767 18.5507 79.9569 19.0795 80.3173 19.3772C80.6855 19.6749 81.1673 19.8237 81.7626 19.8237C82.3345 19.8237 83.161 19.577 84.2421 19.0834C85.331 18.5821 86.1379 18.1238 86.6628 17.7086C87.2033 17.309 87.5441 17.0701 87.6851 16.9918C87.8261 16.9056 87.9593 16.8625 88.0846 16.8625C88.2726 16.8625 88.4332 16.9291 88.5664 17.0623C88.7074 17.1876 88.7779 17.3443 88.7779 17.5323C88.7779 17.7047 88.7583 17.8378 88.7192 17.9318C88.6173 18.112 88.1551 18.4802 87.3326 19.0364C86.51 19.5926 85.5895 20.094 84.5711 20.5405C83.5527 20.9871 82.6596 21.2103 81.8919 21.2103C81.7274 21.2338 81.5472 21.2456 81.3514 21.2456Z" fill="#F1E0CA"/>
<path d="M110.529 31.9977C110.067 31.9977 109.698 31.9741 109.424 31.9271C108.03 31.6608 106.972 31.2143 106.251 30.5875C105.531 29.9608 105.17 29.2284 105.17 28.3901C105.17 27.5441 105.554 26.839 106.322 26.275C107.098 25.7031 108.034 25.3192 109.13 25.1234C109.632 25.0215 110.165 24.955 110.729 24.9236C111.3 24.8845 112.08 24.8649 113.067 24.8649C114.234 24.8649 115.225 24.8923 116.04 24.9471C116.863 25.002 117.681 25.0725 118.496 25.1586C119.06 25.2135 119.432 25.2409 119.612 25.2409C119.745 25.2409 119.832 25.2291 119.871 25.2056C120.074 25.0333 120.56 24.3948 121.328 23.2902C122.096 22.1857 122.699 21.2534 123.137 20.4935C123.733 19.4438 124.426 18.0768 125.217 16.3925C126.016 14.7004 126.655 13.2315 127.133 11.9859C127.517 10.9988 127.873 9.99608 128.202 8.97767C128.531 7.95143 128.696 7.34038 128.696 7.14454V7.09753C128.656 7.09753 128.3 7.51665 127.626 8.35488C126.428 9.81199 125.221 11.273 124.007 12.738C122.503 14.5398 121.132 16.0752 119.894 17.3443C118.656 18.6056 117.509 19.6357 116.451 20.4348C115.401 21.2338 114.422 21.8214 113.514 22.1974C112.605 22.5734 111.727 22.7615 110.881 22.7615C110.114 22.7615 109.405 22.5969 108.754 22.2679C108.104 21.9389 107.579 21.4297 107.18 20.7403C106.788 20.0509 106.592 19.1892 106.592 18.1551C106.592 17.4422 106.671 16.7528 106.827 16.087C106.984 15.4211 107.258 14.6259 107.65 13.7015C108.042 12.7771 108.633 11.5119 109.424 9.90599C110.059 8.6134 110.47 7.73208 110.658 7.26204C110.854 6.78418 110.952 6.39248 110.952 6.08696C110.952 5.76577 110.83 5.55033 110.588 5.44066C110.353 5.32315 110.016 5.26439 109.577 5.26439C108.715 5.26439 107.599 5.4955 106.228 5.9577C104.865 6.41206 103.443 7.05445 101.962 7.88484C101.289 8.2452 100.564 8.7074 99.7885 9.27145C99.0129 9.82765 98.3588 10.3604 97.8261 10.8696C97.3012 11.3788 97.0388 11.747 97.0388 11.9741C97.0388 12.0447 97.0662 12.1504 97.121 12.2914C97.2072 12.4716 97.2503 12.6204 97.2503 12.738C97.2503 12.9103 97.1915 13.0513 97.074 13.161C96.9565 13.2707 96.7998 13.3255 96.604 13.3255C96.3298 13.3255 96.1026 13.2002 95.9224 12.9495C95.7423 12.6988 95.6522 12.3972 95.6522 12.0447C95.6522 11.5746 95.8754 11.0419 96.322 10.4465C96.7685 9.85116 97.3678 9.24794 98.1199 8.6369C98.8798 8.02585 99.7454 7.43439 100.717 6.86251C101.688 6.2828 102.699 5.76577 103.749 5.3114C104.798 4.8492 105.825 4.48884 106.827 4.23032C107.838 3.96396 108.75 3.83079 109.565 3.83079C110.027 3.83079 110.333 3.83862 110.482 3.85429C110.631 3.86212 110.787 3.90129 110.952 3.9718C111.962 4.37916 112.468 5.06855 112.468 6.03995C112.468 6.50215 112.358 7.02311 112.139 7.60282C111.927 8.18253 111.485 9.14219 110.811 10.4818C110.035 12.0329 109.487 13.1806 109.166 13.9248C108.429 15.6248 108.061 17.0349 108.061 18.1551C108.061 19.1344 108.312 19.8982 108.813 20.4465C109.315 20.9871 110.02 21.2573 110.928 21.2573C111.892 21.2573 112.946 20.9205 114.089 20.2468C115.241 19.5652 116.616 18.4411 118.214 16.8743C119.24 15.8794 120.4 14.6377 121.692 13.1492C122.985 11.653 124.759 9.51038 127.015 6.7215C127.595 5.99295 127.995 5.51116 128.214 5.27615C128.433 5.04113 128.629 4.88837 128.801 4.81786C128.982 4.73169 129.146 4.6886 129.295 4.6886C129.577 4.6886 129.816 4.81394 130.012 5.06463C130.208 5.31532 130.306 5.67568 130.306 6.14571C130.306 6.9526 130.051 8.13944 129.542 9.70623C129.033 11.273 128.39 12.9573 127.615 14.7591C126.839 16.5531 126.06 18.1864 125.276 19.6592C124.665 20.8108 124.105 21.7822 123.596 22.5734C123.087 23.3568 122.585 24.0932 122.092 24.7826C121.786 25.2056 121.633 25.4407 121.633 25.4877V25.4994C121.688 25.4994 122.068 25.5503 122.773 25.6522C123.486 25.754 123.886 25.8284 123.972 25.8754C124.074 25.9303 124.16 26.0165 124.23 26.134C124.301 26.2515 124.336 26.3729 124.336 26.4982C124.336 26.6706 124.254 26.8273 124.089 26.9683C123.933 27.1014 123.745 27.172 123.525 27.1798C123.134 27.1798 122.135 27.0819 120.529 26.886C119.432 27.9828 118.531 28.8249 117.826 29.4125C117.129 30 116.389 30.4857 115.605 30.8696C114.83 31.2456 113.905 31.5472 112.832 31.7744C112.519 31.8449 112.154 31.8997 111.739 31.9389C111.324 31.9781 110.92 31.9977 110.529 31.9977ZM110.693 30.5053C111.187 30.5053 111.747 30.4465 112.374 30.329C113.463 30.1332 114.418 29.8042 115.241 29.342C116.071 28.8797 117.062 28.1277 118.214 27.0858C118.433 26.8978 118.543 26.7763 118.543 26.7215C118.543 26.7137 118.539 26.7098 118.531 26.7098C118.468 26.6471 117.818 26.5727 116.58 26.4865C115.343 26.3925 114.187 26.3455 113.114 26.3455C111.171 26.3455 109.73 26.4669 108.79 26.7098C108.139 26.8743 107.615 27.1132 107.215 27.4266C106.816 27.7399 106.616 28.0572 106.616 28.3784C106.616 28.7701 106.812 29.1304 107.203 29.4595C107.595 29.7807 108.104 30.0353 108.731 30.2233C109.358 30.4113 110.012 30.5053 110.693 30.5053Z" fill="#F1E0CA"/>
<path d="M140.658 21.2456C140.157 21.2456 139.64 21.1281 139.107 20.8931C138.574 20.658 138.116 20.2977 137.732 19.812C137.348 19.3184 137.125 18.7113 137.062 17.9906C137.031 17.6616 137.004 17.4971 136.98 17.4971C136.98 17.4971 136.788 17.6812 136.404 18.0494C136.02 18.4097 135.59 18.774 135.112 19.1422C134.642 19.5104 134.117 19.8394 133.537 20.1293C133.067 20.3643 132.707 20.517 132.456 20.5875C132.213 20.6502 131.915 20.6816 131.563 20.6816C130.952 20.6816 130.439 20.5249 130.024 20.2115C129.616 19.8903 129.412 19.3302 129.412 18.5311C129.412 17.7712 129.655 17.0544 130.141 16.3807C130.627 15.6992 131.238 15.1391 131.974 14.7004C132.585 14.3322 133.192 14.0697 133.796 13.913C134.399 13.7564 135.131 13.678 135.993 13.678C136.745 13.678 137.293 13.7211 137.638 13.8073C137.983 13.8856 138.265 14.0384 138.484 14.2656C138.625 14.3987 138.707 14.5006 138.731 14.5711C138.754 14.6338 138.766 14.8022 138.766 15.0764C138.766 15.3036 138.731 15.7148 138.66 16.3102C138.59 16.9213 138.555 17.3443 138.555 17.5793C138.555 18.3235 138.743 18.8719 139.119 19.2244C139.503 19.5691 140.004 19.7415 140.623 19.7415C141.265 19.7415 141.896 19.5652 142.515 19.2127C143.141 18.8602 143.835 18.394 144.595 17.8143C144.939 17.548 145.198 17.36 145.37 17.2503C145.543 17.1328 145.676 17.074 145.77 17.074C145.966 17.074 146.13 17.1445 146.263 17.2855C146.396 17.4266 146.463 17.5793 146.463 17.7438C146.463 17.9945 146.298 18.2726 145.969 18.5781C145.139 19.3459 144.195 19.9843 143.137 20.4935C142.08 20.9949 141.253 21.2456 140.658 21.2456ZM131.575 19.2362C132.107 19.2362 132.836 18.9228 133.76 18.2961C134.693 17.6694 135.609 16.8351 136.51 15.7932C136.847 15.4172 137.015 15.19 137.015 15.1116C137.015 15.096 137.011 15.0842 137.004 15.0764C136.949 15.0372 136.757 15.0176 136.428 15.0176C135.206 15.0176 134.113 15.2526 133.149 15.7227C132.186 16.1849 131.512 16.8077 131.128 17.5911C130.948 17.9671 130.858 18.2883 130.858 18.5546C130.858 18.7662 130.917 18.9346 131.034 19.0599C131.159 19.1774 131.34 19.2362 131.575 19.2362Z" fill="#F1E0CA"/>
<path d="M145.1 21.2221C144.771 21.2221 144.512 21.2064 144.324 21.1751C143.564 21.0732 142.989 20.9087 142.597 20.6816C142.205 20.4465 142.009 20.1606 142.009 19.8237C142.009 19.6592 142.056 19.5025 142.15 19.3537C142.244 19.2049 142.378 19.0873 142.55 19.0012C142.769 18.8915 143.423 18.7897 144.512 18.6957C145.601 18.5938 146.146 18.5429 146.146 18.5429C146.146 18.5429 146.024 18.4567 145.781 18.2844C145.539 18.112 145.296 17.9083 145.053 17.6733C144.81 17.4383 144.622 17.1994 144.489 16.9565C144.418 16.8233 144.371 16.698 144.348 16.5805C144.324 16.463 144.313 16.2671 144.313 15.9929C144.313 15.4681 144.458 14.9785 144.747 14.5241C145.037 14.0697 145.362 13.6898 145.723 13.3843C146.091 13.0709 146.404 12.8515 146.663 12.7262C147.148 12.4755 147.599 12.3502 148.014 12.3502C148.523 12.3502 148.946 12.5382 149.283 12.9142C149.628 13.2824 149.8 13.6741 149.8 14.0893C149.8 14.2303 149.73 14.3635 149.589 14.4888C149.448 14.6142 149.303 14.6769 149.154 14.6769C148.997 14.6769 148.872 14.6298 148.778 14.5358C148.684 14.4418 148.59 14.3008 148.496 14.1128C148.418 13.9718 148.351 13.87 148.296 13.8073C148.241 13.7368 148.167 13.7015 148.073 13.7015C147.893 13.7015 147.615 13.8269 147.239 14.0776C146.863 14.3204 146.53 14.622 146.24 14.9824C145.95 15.3349 145.805 15.6757 145.805 16.0047C145.805 16.1692 145.872 16.3298 146.005 16.4865C146.146 16.6353 146.412 16.839 146.804 17.0975C146.812 17.1054 146.823 17.1132 146.839 17.121C147.474 17.5597 147.865 17.8653 148.014 18.0376C148.085 18.1081 148.143 18.1629 148.19 18.2021C148.253 18.1864 148.343 18.1629 148.461 18.1316C149.479 17.8574 150.29 17.6146 150.893 17.4031C151.504 17.1837 152.217 16.8508 153.032 16.4042C153.235 16.2946 153.435 16.1966 153.631 16.1105C153.835 16.0165 153.96 15.9694 154.007 15.9694C154.219 15.9694 154.391 16.04 154.524 16.181C154.657 16.3141 154.724 16.4747 154.724 16.6628C154.724 16.8429 154.661 17.0074 154.536 17.1563C154.215 17.4853 153.514 17.8888 152.432 18.3666C151.351 18.8367 150.325 19.1853 149.354 19.4125C148.978 19.5143 148.747 19.5887 148.66 19.6357C148.582 19.6749 148.515 19.7532 148.461 19.8707C148.014 20.7638 147.054 21.2103 145.582 21.2103L145.1 21.2221Z" fill="#F1E0CA"/>
<path d="M153.984 21.2221C153.655 21.2221 153.396 21.2064 153.208 21.1751C152.448 21.0732 151.872 20.9087 151.481 20.6816C151.089 20.4465 150.893 20.1606 150.893 19.8237C150.893 19.6592 150.94 19.5025 151.034 19.3537C151.128 19.2049 151.261 19.0873 151.434 19.0012C151.653 18.8915 152.307 18.7897 153.396 18.6957C154.485 18.5938 155.029 18.5429 155.029 18.5429C155.029 18.5429 154.908 18.4567 154.665 18.2844C154.422 18.112 154.179 17.9083 153.937 17.6733C153.694 17.4383 153.506 17.1994 153.373 16.9565C153.302 16.8233 153.255 16.698 153.231 16.5805C153.208 16.463 153.196 16.2671 153.196 15.9929C153.196 15.4681 153.341 14.9785 153.631 14.5241C153.921 14.0697 154.246 13.6898 154.606 13.3843C154.975 13.0709 155.288 12.8515 155.546 12.7262C156.032 12.4755 156.483 12.3502 156.898 12.3502C157.407 12.3502 157.83 12.5382 158.167 12.9142C158.512 13.2824 158.684 13.6741 158.684 14.0893C158.684 14.2303 158.613 14.3635 158.472 14.4888C158.331 14.6142 158.186 14.6769 158.038 14.6769C157.881 14.6769 157.756 14.6298 157.662 14.5358C157.568 14.4418 157.474 14.3008 157.38 14.1128C157.301 13.9718 157.235 13.87 157.18 13.8073C157.125 13.7368 157.051 13.7015 156.957 13.7015C156.776 13.7015 156.498 13.8269 156.122 14.0776C155.746 14.3204 155.413 14.622 155.123 14.9824C154.834 15.3349 154.689 15.6757 154.689 16.0047C154.689 16.1692 154.755 16.3298 154.888 16.4865C155.029 16.6353 155.296 16.839 155.687 17.0975C155.695 17.1054 155.707 17.1132 155.723 17.121C156.357 17.5597 156.749 17.8653 156.898 18.0376C156.968 18.1081 157.027 18.1629 157.074 18.2021C157.137 18.1864 157.227 18.1629 157.344 18.1316C158.363 17.8574 159.174 17.6146 159.777 17.4031C160.388 17.1837 161.101 16.8508 161.915 16.4042C162.119 16.2946 162.319 16.1966 162.515 16.1105C162.718 16.0165 162.844 15.9694 162.891 15.9694C163.102 15.9694 163.275 16.04 163.408 16.181C163.541 16.3141 163.608 16.4747 163.608 16.6628C163.608 16.8429 163.545 17.0074 163.42 17.1563C163.098 17.4853 162.397 17.8888 161.316 18.3666C160.235 18.8367 159.209 19.1853 158.237 19.4125C157.861 19.5143 157.63 19.5887 157.544 19.6357C157.466 19.6749 157.399 19.7532 157.344 19.8707C156.898 20.7638 155.938 21.2103 154.465 21.2103L153.984 21.2221Z" fill="#F1E0CA"/>
<path d="M172.996 21.2456C172.495 21.2456 171.978 21.1281 171.445 20.8931C170.913 20.658 170.454 20.2977 170.071 19.812C169.687 19.3184 169.463 18.7113 169.401 17.9906C169.369 17.6616 169.342 17.4971 169.318 17.4971C169.318 17.4971 169.127 17.6812 168.743 18.0494C168.359 18.4097 167.928 18.774 167.45 19.1422C166.98 19.5104 166.455 19.8394 165.875 20.1293C165.405 20.3643 165.045 20.517 164.794 20.5875C164.552 20.6502 164.254 20.6816 163.901 20.6816C163.29 20.6816 162.777 20.5249 162.362 20.2115C161.955 19.8903 161.751 19.3302 161.751 18.5311C161.751 17.7712 161.994 17.0544 162.479 16.3807C162.965 15.6992 163.576 15.1391 164.313 14.7004C164.924 14.3322 165.531 14.0697 166.134 13.913C166.737 13.7564 167.47 13.678 168.331 13.678C169.083 13.678 169.632 13.7211 169.977 13.8073C170.321 13.8856 170.603 14.0384 170.823 14.2656C170.964 14.3987 171.046 14.5006 171.069 14.5711C171.093 14.6338 171.105 14.8022 171.105 15.0764C171.105 15.3036 171.069 15.7148 170.999 16.3102C170.928 16.9213 170.893 17.3443 170.893 17.5793C170.893 18.3235 171.081 18.8719 171.457 19.2244C171.841 19.5691 172.342 19.7415 172.961 19.7415C173.604 19.7415 174.234 19.5652 174.853 19.2127C175.48 18.8602 176.173 18.394 176.933 17.8143C177.278 17.548 177.536 17.36 177.709 17.2503C177.881 17.1328 178.014 17.074 178.108 17.074C178.304 17.074 178.468 17.1445 178.602 17.2855C178.735 17.4266 178.801 17.5793 178.801 17.7438C178.801 17.9945 178.637 18.2726 178.308 18.5781C177.477 19.3459 176.533 19.9843 175.476 20.4935C174.418 20.9949 173.592 21.2456 172.996 21.2456ZM163.913 19.2362C164.446 19.2362 165.174 18.9228 166.099 18.2961C167.031 17.6694 167.948 16.8351 168.848 15.7932C169.185 15.4172 169.354 15.19 169.354 15.1116C169.354 15.096 169.35 15.0842 169.342 15.0764C169.287 15.0372 169.095 15.0176 168.766 15.0176C167.544 15.0176 166.451 15.2526 165.488 15.7227C164.524 16.1849 163.85 16.8077 163.467 17.5911C163.286 17.9671 163.196 18.2883 163.196 18.5546C163.196 18.7662 163.255 18.9346 163.373 19.0599C163.498 19.1774 163.678 19.2362 163.913 19.2362Z" fill="#F1E0CA"/>
<path d="M176.322 21.2691C176.103 21.2691 175.926 21.2064 175.793 21.0811C175.66 20.9479 175.593 20.7677 175.593 20.5405C175.593 20.4074 175.656 20.2389 175.781 20.0353C175.899 19.8237 176.107 19.5065 176.404 19.0834C176.953 18.2922 177.376 17.6381 177.673 17.121C178.002 16.5883 178.363 15.9107 178.754 15.0881C179.154 14.2656 179.354 13.7877 179.354 13.6545C179.354 13.49 179.42 13.3333 179.553 13.1845C179.687 13.0278 179.832 12.9495 179.988 12.9495C180.192 12.9495 180.364 13.02 180.505 13.161C180.654 13.302 180.729 13.4822 180.729 13.7015C180.729 13.9209 180.662 14.2029 180.529 14.5476C180.396 14.8923 180.212 15.3075 179.977 15.7932C179.765 16.2632 179.659 16.5296 179.659 16.5922V16.604C179.675 16.604 179.761 16.5531 179.918 16.4512C180.09 16.3337 180.231 16.2397 180.341 16.1692C180.936 15.7775 181.445 15.4994 181.868 15.3349C182.291 15.1626 182.699 15.0764 183.09 15.0764C183.467 15.0764 183.78 15.1351 184.031 15.2526C184.281 15.3623 184.595 15.5934 184.971 15.9459C185.323 16.275 185.593 16.4826 185.781 16.5687C185.977 16.6471 186.216 16.6863 186.498 16.6863C186.733 16.6863 186.996 16.6471 187.286 16.5687C187.513 16.5061 187.701 16.4747 187.85 16.4747C188.085 16.4747 188.261 16.5452 188.378 16.6863C188.496 16.8273 188.555 16.9957 188.555 17.1915C188.555 17.4892 188.343 17.7321 187.92 17.9201C187.497 18.1081 187.043 18.2021 186.557 18.2021C186.134 18.2021 185.719 18.1277 185.311 17.9788C184.912 17.8222 184.489 17.5362 184.042 17.121C183.823 16.9174 183.647 16.7763 183.514 16.698C183.38 16.6118 183.247 16.5687 183.114 16.5687C182.652 16.5687 181.845 16.98 180.693 17.8026C179.542 18.6251 178.468 19.5182 177.474 20.4818C177.105 20.85 176.866 21.0732 176.757 21.1516C176.639 21.2299 176.494 21.2691 176.322 21.2691Z" fill="#F1E0CA"/>
</g>
</svg>
